<svg xmlns="http://www.w3.org/2000/svg" font-family="Menlo,Lucida Console,monospace" viewBox="0 0 248 185">
      <g transform="translate(8,16)">
<path d="M 0,16 L 88,16" fill="none" stroke="currentColor"></path>
<path d="M 152,16 L 232,16" fill="none" stroke="currentColor"></path>
<path d="M 88,32 L 96,32" fill="none" stroke="currentColor"></path>
<path d="M 144,32 L 152,32" fill="none" stroke="currentColor"></path>
<path d="M 88,48 L 152,48" fill="none" stroke="currentColor"></path>
<path d="M 88,64 L 152,64" fill="none" stroke="currentColor"></path>
<path d="M 88,80 L 152,80" fill="none" stroke="currentColor"></path>
<path d="M 88,96 L 152,96" fill="none" stroke="currentColor"></path>
<path d="M 88,112 L 152,112" fill="none" stroke="currentColor"></path>
<path d="M 88,128 L 152,128" fill="none" stroke="currentColor"></path>
<path d="M 88,144 L 152,144" fill="none" stroke="currentColor"></path>
<path d="M 0,160 L 88,160" fill="none" stroke="currentColor"></path>
<path d="M 152,160 L 232,160" fill="none" stroke="currentColor"></path>
<path d="M 104,24 L 136,24" fill="none" stroke="currentColor"></path>
<path d="M 104,40 L 136,40" fill="none" stroke="currentColor"></path>
<path d="M 88,16 L 88,32" fill="none" stroke="currentColor"></path>
<path d="M 88,32 L 88,48" fill="none" stroke="currentColor"></path>
<path d="M 88,48 L 88,64" fill="none" stroke="currentColor"></path>
<path d="M 88,64 L 88,80" fill="none" stroke="currentColor"></path>
<path d="M 88,80 L 88,96" fill="none" stroke="currentColor"></path>
<path d="M 88,96 L 88,112" fill="none" stroke="currentColor"></path>
<path d="M 88,112 L 88,128" fill="none" stroke="currentColor"></path>
<path d="M 88,128 L 88,144" fill="none" stroke="currentColor"></path>
<path d="M 88,144 L 88,160" fill="none" stroke="currentColor"></path>
<path d="M 104,24 L 104,40" fill="none" stroke="currentColor"></path>
<path d="M 136,24 L 136,40" fill="none" stroke="currentColor"></path>
<path d="M 152,16 L 152,32" fill="none" stroke="currentColor"></path>
<path d="M 152,32 L 152,48" fill="none" stroke="currentColor"></path>
<path d="M 152,48 L 152,64" fill="none" stroke="currentColor"></path>
<path d="M 152,64 L 152,80" fill="none" stroke="currentColor"></path>
<path d="M 152,80 L 152,96" fill="none" stroke="currentColor"></path>
<path d="M 152,96 L 152,112" fill="none" stroke="currentColor"></path>
<path d="M 152,112 L 152,128" fill="none" stroke="currentColor"></path>
<path d="M 152,128 L 152,144" fill="none" stroke="currentColor"></path>
<path d="M 152,144 L 152,160" fill="none" stroke="currentColor"></path>
<path d="M 104,24 L 104,32" fill="none" stroke="currentColor"></path>
<path d="M 136,24 L 136,32" fill="none" stroke="currentColor"></path>
<text text-anchor="middle" x="8" y="4" fill="currentColor" style="font-size:1em">S</text>
<text text-anchor="middle" x="8" y="68" fill="currentColor" style="font-size:1em">G</text>
<text text-anchor="middle" x="16" y="4" fill="currentColor" style="font-size:1em">n</text>
<text text-anchor="middle" x="16" y="52" fill="currentColor" style="font-size:1em">B</text>
<text text-anchor="middle" x="16" y="68" fill="currentColor" style="font-size:1em">R</text>
<text text-anchor="middle" x="24" y="4" fill="currentColor" style="font-size:1em">o</text>
<text text-anchor="middle" x="24" y="52" fill="currentColor" style="font-size:1em">L</text>
<text text-anchor="middle" x="24" y="68" fill="currentColor" style="font-size:1em">E</text>
<text text-anchor="middle" x="24" y="84" fill="currentColor" style="font-size:1em">R</text>
<text text-anchor="middle" x="32" y="4" fill="currentColor" style="font-size:1em">w</text>
<text text-anchor="middle" x="32" y="36" fill="currentColor" style="font-size:1em">I</text>
<text text-anchor="middle" x="32" y="52" fill="currentColor" style="font-size:1em">U</text>
<text text-anchor="middle" x="32" y="68" fill="currentColor" style="font-size:1em">E</text>
<text text-anchor="middle" x="32" y="84" fill="currentColor" style="font-size:1em">E</text>
<text text-anchor="middle" x="32" y="100" fill="currentColor" style="font-size:1em">N</text>
<text text-anchor="middle" x="32" y="116" fill="currentColor" style="font-size:1em">N</text>
<text text-anchor="middle" x="40" y="4" fill="currentColor" style="font-size:1em">d</text>
<text text-anchor="middle" x="40" y="36" fill="currentColor" style="font-size:1em">R</text>
<text text-anchor="middle" x="40" y="52" fill="currentColor" style="font-size:1em">E</text>
<text text-anchor="middle" x="40" y="68" fill="currentColor" style="font-size:1em">N</text>
<text text-anchor="middle" x="40" y="84" fill="currentColor" style="font-size:1em">D</text>
<text text-anchor="middle" x="40" y="100" fill="currentColor" style="font-size:1em">O</text>
<text text-anchor="middle" x="40" y="116" fill="currentColor" style="font-size:1em">O</text>
<text text-anchor="middle" x="48" y="4" fill="currentColor" style="font-size:1em">o</text>
<text text-anchor="middle" x="48" y="36" fill="currentColor" style="font-size:1em">_</text>
<text text-anchor="middle" x="48" y="52" fill="currentColor" style="font-size:1em">_</text>
<text text-anchor="middle" x="48" y="68" fill="currentColor" style="font-size:1em">_</text>
<text text-anchor="middle" x="48" y="84" fill="currentColor" style="font-size:1em">_</text>
<text text-anchor="middle" x="48" y="100" fill="currentColor" style="font-size:1em">N</text>
<text text-anchor="middle" x="48" y="116" fill="currentColor" style="font-size:1em">N</text>
<text text-anchor="middle" x="56" y="4" fill="currentColor" style="font-size:1em">n</text>
<text text-anchor="middle" x="56" y="36" fill="currentColor" style="font-size:1em">L</text>
<text text-anchor="middle" x="56" y="52" fill="currentColor" style="font-size:1em">L</text>
<text text-anchor="middle" x="56" y="68" fill="currentColor" style="font-size:1em">L</text>
<text text-anchor="middle" x="56" y="84" fill="currentColor" style="font-size:1em">L</text>
<text text-anchor="middle" x="56" y="100" fill="currentColor" style="font-size:1em">E</text>
<text text-anchor="middle" x="56" y="116" fill="currentColor" style="font-size:1em">E</text>
<text text-anchor="middle" x="56" y="132" fill="currentColor" style="font-size:1em">+</text>
<text text-anchor="middle" x="56" y="148" fill="currentColor" style="font-size:1em">G</text>
<text text-anchor="middle" x="64" y="36" fill="currentColor" style="font-size:1em">E</text>
<text text-anchor="middle" x="64" y="52" fill="currentColor" style="font-size:1em">E</text>
<text text-anchor="middle" x="64" y="68" fill="currentColor" style="font-size:1em">E</text>
<text text-anchor="middle" x="64" y="84" fill="currentColor" style="font-size:1em">E</text>
<text text-anchor="middle" x="64" y="100" fill="currentColor" style="font-size:1em">_</text>
<text text-anchor="middle" x="64" y="116" fill="currentColor" style="font-size:1em">_</text>
<text text-anchor="middle" x="64" y="132" fill="currentColor" style="font-size:1em">5</text>
<text text-anchor="middle" x="64" y="148" fill="currentColor" style="font-size:1em">N</text>
<text text-anchor="middle" x="72" y="36" fill="currentColor" style="font-size:1em">D</text>
<text text-anchor="middle" x="72" y="52" fill="currentColor" style="font-size:1em">D</text>
<text text-anchor="middle" x="72" y="68" fill="currentColor" style="font-size:1em">D</text>
<text text-anchor="middle" x="72" y="84" fill="currentColor" style="font-size:1em">D</text>
<text text-anchor="middle" x="72" y="100" fill="currentColor" style="font-size:1em">1</text>
<text text-anchor="middle" x="72" y="116" fill="currentColor" style="font-size:1em">2</text>
<text text-anchor="middle" x="72" y="132" fill="currentColor" style="font-size:1em">V</text>
<text text-anchor="middle" x="72" y="148" fill="currentColor" style="font-size:1em">D</text>
<text text-anchor="middle" x="104" y="4" fill="currentColor" style="font-size:1em">2</text>
<text text-anchor="middle" x="112" y="4" fill="currentColor" style="font-size:1em">2</text>
<text text-anchor="middle" x="120" y="4" fill="currentColor" style="font-size:1em">0</text>
<text text-anchor="middle" x="128" y="4" fill="currentColor" style="font-size:1em">Ω</text>
<text text-anchor="middle" x="168" y="4" fill="currentColor" style="font-size:1em">R</text>
<text text-anchor="middle" x="168" y="36" fill="currentColor" style="font-size:1em">G</text>
<text text-anchor="middle" x="168" y="52" fill="currentColor" style="font-size:1em">G</text>
<text text-anchor="middle" x="168" y="68" fill="currentColor" style="font-size:1em">G</text>
<text text-anchor="middle" x="168" y="84" fill="currentColor" style="font-size:1em">G</text>
<text text-anchor="middle" x="168" y="100" fill="currentColor" style="font-size:1em">S</text>
<text text-anchor="middle" x="168" y="116" fill="currentColor" style="font-size:1em">S</text>
<text text-anchor="middle" x="168" y="132" fill="currentColor" style="font-size:1em">V</text>
<text text-anchor="middle" x="168" y="148" fill="currentColor" style="font-size:1em">G</text>
<text text-anchor="middle" x="176" y="4" fill="currentColor" style="font-size:1em">a</text>
<text text-anchor="middle" x="176" y="36" fill="currentColor" style="font-size:1em">P</text>
<text text-anchor="middle" x="176" y="52" fill="currentColor" style="font-size:1em">P</text>
<text text-anchor="middle" x="176" y="68" fill="currentColor" style="font-size:1em">P</text>
<text text-anchor="middle" x="176" y="84" fill="currentColor" style="font-size:1em">P</text>
<text text-anchor="middle" x="176" y="100" fill="currentColor" style="font-size:1em">W</text>
<text text-anchor="middle" x="176" y="116" fill="currentColor" style="font-size:1em">W</text>
<text text-anchor="middle" x="176" y="132" fill="currentColor" style="font-size:1em">S</text>
<text text-anchor="middle" x="176" y="148" fill="currentColor" style="font-size:1em">N</text>
<text text-anchor="middle" x="184" y="4" fill="currentColor" style="font-size:1em">s</text>
<text text-anchor="middle" x="184" y="36" fill="currentColor" style="font-size:1em">I</text>
<text text-anchor="middle" x="184" y="52" fill="currentColor" style="font-size:1em">I</text>
<text text-anchor="middle" x="184" y="68" fill="currentColor" style="font-size:1em">I</text>
<text text-anchor="middle" x="184" y="84" fill="currentColor" style="font-size:1em">I</text>
<text text-anchor="middle" x="184" y="100" fill="currentColor" style="font-size:1em">D</text>
<text text-anchor="middle" x="184" y="116" fill="currentColor" style="font-size:1em">C</text>
<text text-anchor="middle" x="184" y="132" fill="currentColor" style="font-size:1em">Y</text>
<text text-anchor="middle" x="184" y="148" fill="currentColor" style="font-size:1em">D</text>
<text text-anchor="middle" x="192" y="4" fill="currentColor" style="font-size:1em">p</text>
<text text-anchor="middle" x="192" y="36" fill="currentColor" style="font-size:1em">O</text>
<text text-anchor="middle" x="192" y="52" fill="currentColor" style="font-size:1em">O</text>
<text text-anchor="middle" x="192" y="68" fill="currentColor" style="font-size:1em">O</text>
<text text-anchor="middle" x="192" y="84" fill="currentColor" style="font-size:1em">O</text>
<text text-anchor="middle" x="192" y="100" fill="currentColor" style="font-size:1em">I</text>
<text text-anchor="middle" x="192" y="116" fill="currentColor" style="font-size:1em">L</text>
<text text-anchor="middle" x="192" y="132" fill="currentColor" style="font-size:1em">S</text>
<text text-anchor="middle" x="200" y="100" fill="currentColor" style="font-size:1em">O</text>
<text text-anchor="middle" x="200" y="116" fill="currentColor" style="font-size:1em">K</text>
<text text-anchor="middle" x="208" y="4" fill="currentColor" style="font-size:1em">P</text>
<text text-anchor="middle" x="208" y="36" fill="currentColor" style="font-size:1em">1</text>
<text text-anchor="middle" x="208" y="52" fill="currentColor" style="font-size:1em">1</text>
<text text-anchor="middle" x="208" y="68" fill="currentColor" style="font-size:1em">1</text>
<text text-anchor="middle" x="208" y="84" fill="currentColor" style="font-size:1em">1</text>
<text text-anchor="middle" x="216" y="4" fill="currentColor" style="font-size:1em">i</text>
<text text-anchor="middle" x="216" y="36" fill="currentColor" style="font-size:1em">6</text>
<text text-anchor="middle" x="216" y="52" fill="currentColor" style="font-size:1em">9</text>
<text text-anchor="middle" x="216" y="68" fill="currentColor" style="font-size:1em">8</text>
<text text-anchor="middle" x="216" y="84" fill="currentColor" style="font-size:1em">7</text>
</g>

    </svg>